<svg id="Layer_1" data-name="Layer 1" xmlns="http://www.w3.org/2000/svg" viewBox="0 0 31 31"><defs><style>.cls-1{fill:#44b658;}</style></defs><path class="cls-1" d="M15.5,30.74A15.24,15.24,0,1,1,30.74,15.5,15.26,15.26,0,0,1,15.5,30.74Zm0-27.24a12,12,0,1,0,12,12A12,12,0,0,0,15.5,3.5Z"/><path class="cls-1" d="M23.53,11a1.61,1.61,0,0,0-2.28,0L14.79,17.5l-4.13-4.14a1.62,1.62,0,0,0-2.29,2.29l5.28,5.28a1.62,1.62,0,0,0,1.14.47,1.64,1.64,0,0,0,1.15-.47l.08-.09.09-.08,7.42-7.43A1.61,1.61,0,0,0,23.53,11Z"/></svg>