<svg id="Layer_1" data-name="Layer 1" xmlns="http://www.w3.org/2000/svg" viewBox="0 0 40 45"><defs><style>.cls-1{fill:#414042;}.cls-2{fill:#ee5050;}</style></defs><path class="cls-1" d="M24.46,18.55c0-.6-.06-1.21-.11-1.8-.5-7-2-13.06-4.34-13.06s-3.84,6.05-4.34,13c-.06.78-.1,1.57-.13,2.37,0,1-.06,2-.06,3s0,1.87,0,2.8c0,.3,0,.6,0,.9A54.59,54.59,0,0,0,16.71,35c.07.3.15.59.22.87a15.85,15.85,0,0,0,.75,2.24,8.19,8.19,0,0,0,.54,1.07c.53.86,1.12,1.35,1.79,1.35s1.28-.5,1.81-1.37a8.57,8.57,0,0,0,.61-1.25,16.45,16.45,0,0,0,.67-2.08c.08-.28.15-.57.22-.88a54.16,54.16,0,0,0,1.13-9.13c0-.3,0-.6,0-.9,0-.93.05-1.88.05-2.81C24.54,20.93,24.52,19.74,24.46,18.55Zm-1.91,16a19.48,19.48,0,0,1-1,3.33c-.51,1.18-1,1.83-1.56,1.83S19,39.1,18.54,38a17.8,17.8,0,0,1-1.06-3.48,55.47,55.47,0,0,1-1.08-9.32c0-1-.06-2-.06-3.12s0-2.11.06-3.11C16.74,10.35,18.45,4.56,20,4.56s3.2,5.55,3.59,13.9c0,1.17.08,2.39.08,3.66s0,2.34-.07,3.44A54,54,0,0,1,22.55,34.52Z"/><path class="cls-1" d="M15.67,16.73l-.42.16L3.15,24v5.73l12.42-3.94.83-.27v-9.1ZM4,28.58V24.52l11.53-6.81v7.21h0Z"/><path class="cls-2" d="M15.54,19.1c0,1-.06,2-.06,3s0,1.87,0,2.8L4,28.58V24.52l11.53-6.81Z"/><path class="cls-1" d="M24.82,16.92l-.47-.17-.75-.29v9.09h0l.84.27,12.4,3.93V24ZM36,28.58l-11.5-3.65h0v-7.2L36,24.52Z"/><path class="cls-2" d="M36,24.52v4.06l-11.5-3.65c0-.93.05-1.88.05-2.81,0-1.19,0-2.38-.08-3.57v-.83Z"/><path class="cls-1" d="M17.48,34.56l-.77.45-5.16,3v3.26l6.67-2.12.32-.1V38A17.8,17.8,0,0,1,17.48,34.56Zm.2,3.9-5.26,1.66V38.54l4.51-2.66.75-.44Z"/><path class="cls-1" d="M23.32,35l-.77-.45a19.35,19.35,0,0,1-1,3.34v1.24l.25.08,6.73,2.14V38.05Zm4.36,5.16-5.25-1.66v-3l.67.4,4.58,2.7Z"/><path class="cls-1" d="M20,9.14a1.73,1.73,0,1,0,1.72,1.73A1.73,1.73,0,0,0,20,9.14Zm0,3a1.29,1.29,0,1,1,1.29-1.28A1.28,1.28,0,0,1,20,12.15Z"/><circle class="cls-2" cx="20.01" cy="10.87" r="1.29"/><path class="cls-1" d="M20,14.44a1.49,1.49,0,1,0,1.49,1.48A1.49,1.49,0,0,0,20,14.44ZM20,17a1.06,1.06,0,1,1,1.06-1.06A1.06,1.06,0,0,1,20,17Z"/><path class="cls-2" d="M21.07,15.92A1.06,1.06,0,1,1,20,14.87,1.06,1.06,0,0,1,21.07,15.92Z"/></svg>