<svg id="Layer_1" data-name="Layer 1" xmlns="http://www.w3.org/2000/svg" viewBox="0 0 40 45"><defs><style>.cls-1{fill:#ee5050;}.cls-2{fill:#414042;}</style></defs><path class="cls-1" d="M21.78,10.08a7.41,7.41,0,0,0-1.33-3.57h0c-.31-.41-.59-.41-.9,0h0a8.81,8.81,0,0,0-1.33,3.57Z"/><path class="cls-1" d="M23.57,13.65V9.55S26.69,11,26.69,13.2V23.46S23.57,21.68,23.57,19Z"/><path class="cls-1" d="M16.43,13.65V9.55S13.31,11,13.31,13.2V23.46s3.12-1.78,3.12-4.46Z"/><path class="cls-1" d="M23.12,31a26,26,0,0,1-6.24,0l.44-4s2.68-4.91,5.36,0Z"/><polygon class="cls-1" points="27.14 32.38 26.69 31.05 23.12 31.05 23.12 32.83 27.14 32.38"/><polygon class="cls-1" points="12.86 32.38 13.31 31.05 16.88 31.05 16.88 32.83 12.86 32.38"/><path class="cls-1" d="M17.32,31h5.36l.44,2.23a11,11,0,0,1-6.24,0Z"/><rect class="cls-2" x="19.55" y="42.23" width="0.89" height="0.89"/><rect class="cls-2" x="19.55" y="37.51" width="0.89" height="3.84"/><rect class="cls-2" x="21.78" y="36.61" width="0.89" height="5.17"/><rect class="cls-2" x="24.46" y="40" width="0.89" height="0.89"/><rect class="cls-2" x="24.46" y="35.72" width="0.89" height="3.39"/><rect class="cls-2" x="14.65" y="40" width="0.89" height="0.89"/><rect class="cls-2" x="14.65" y="35.72" width="0.89" height="3.39"/><rect class="cls-2" x="17.32" y="36.61" width="0.89" height="5.17"/><path class="cls-2" d="M27.68,32.71l-.56-2.22-.86.22.33,1.34a20.29,20.29,0,0,1-3.11.33L22.91,27a2.93,2.93,0,0,0-5.82,0l-.57,5.41a20.29,20.29,0,0,1-3.11-.33l.33-1.34-.86-.22-.56,2.22.44.11a20,20,0,0,0,3.67.45l0,.31.34.12a11.54,11.54,0,0,0,6.52,0l.34-.12,0-.31a20,20,0,0,0,3.67-.45ZM20,33.27A11.36,11.36,0,0,1,17.36,33L18,27.07a2,2,0,0,1,4,0L22.64,33A11.36,11.36,0,0,1,20,33.27Z"/><path class="cls-2" d="M27.14,23.12V13.2c0-2.11-2.34-3.52-3.13-3.93a11.44,11.44,0,0,0-2.26-6.52,2.18,2.18,0,0,0-3.5,0A13.49,13.49,0,0,0,16,9.27c-.78.41-3.13,1.82-3.13,3.93v9.92L8.4,26.82v3.72l.38.05a86.23,86.23,0,0,0,11.22.9,86.23,86.23,0,0,0,11.22-.9l.38-.05V26.82Zm-.9-9.92v9.18l-.72-.6A4,4,0,0,1,24,18.64V10.3C24.86,10.81,26.24,11.86,26.24,13.2Zm-12.48,0c0-1.34,1.38-2.39,2.23-2.9v8.34a4,4,0,0,1-1.52,3.14l-.71.6ZM30.7,29.77a87.43,87.43,0,0,1-10.25.83V24.8h-.9v5.8A87.43,87.43,0,0,1,9.3,29.77V27.24L15,22.47a4.87,4.87,0,0,0,1.84-3.83V9.55A12.34,12.34,0,0,1,19,3.28a1.3,1.3,0,0,1,2.06,0,10.5,10.5,0,0,1,2.09,6.27v9.09A4.87,4.87,0,0,0,25,22.47l5.74,4.77Z"/><path class="cls-2" d="M20.8,6.25a1,1,0,0,0-.8-.49h0a1,1,0,0,0-.8.49,9,9,0,0,0-1.43,3.83v5.35h.89v-4.9h2.68v4.9h.89V10.08A7.76,7.76,0,0,0,20.8,6.25ZM18.72,9.64a9.36,9.36,0,0,1,1.19-2.86l.09-.1.09.1A7.59,7.59,0,0,1,21.3,9.64Z"/></svg>