<svg id="Layer_1" data-name="Layer 1" xmlns="http://www.w3.org/2000/svg" viewBox="0 0 40 45"><defs><style>.cls-1{fill:#414042;}.cls-2{fill:#ee5050;}</style></defs><path class="cls-1" d="M33.56,6.32a.47.47,0,0,0-.23-.39.49.49,0,0,0-.44,0L6.25,21.22a.42.42,0,0,0-.22.43.43.43,0,0,0,.3.38l9,2.9,3.77,7,0,.05.06.09a.24.24,0,0,0,.08.06.05.05,0,0,0,.05,0l.08,0h.2l.08,0,.07,0a.18.18,0,0,0,.07-.05l4.82-4.3,8.8,2.72a.34.34,0,0,0,.14,0,.46.46,0,0,0,.27-.09A.45.45,0,0,0,34,30Zm-26,15.17L30.87,8.13,15.46,24.05ZM19.3,31.87s0,0,0,0,0,0,0,0Zm.22.07h0Zm-.21-6.45a.35.35,0,0,1,0,.08l0,.11a.13.13,0,0,0,0,.06v0l-.14,4.29-2.95-5.43L29.43,10.9Zm.64,5.2.15-4.32,3.49,1.08Zm4.87-3.8-.36-.11-4.08-1.26L32.69,7.76l.38,21.68Z"/><polygon class="cls-2" points="24.07 27.59 19.95 31.27 20.11 26.37 24.07 27.59"/><path class="cls-2" d="M31,9,19.56,25.52l-.06.09s0,.08,0,.12,0,0,0,.07v0l-.15,4.86L16,24.54Z"/><path class="cls-1" d="M19.48,33.65h0Z"/><path class="cls-1" d="M19.19,33.55s0,0,0,0h0Zm.21.11h0Zm.09.25h0l.06,0Z"/><path class="cls-1" d="M19.22,33.59h0s0,0,0,0Z"/><path class="cls-1" d="M19.19,33.55s0,0,0,0h0Zm.21.11h0Z"/><polygon class="cls-1" points="11.49 26.5 7.09 32.03 6.3 31.4 10.7 25.87 11.49 26.5"/><polygon class="cls-1" points="12.77 32.32 7.08 39.12 6.3 38.47 11.98 31.67 12.77 32.32"/><rect class="cls-1" x="14.39" y="36.12" width="5.52" height="1.01" transform="translate(-22.31 27.78) rotate(-52.28)"/><polygon class="cls-1" points="27.62 33.53 23.16 39.12 22.36 38.48 26.82 32.9 27.62 33.53"/></svg>